<mxfile host="app.diagrams.net" modified="2022-12-10T06:30:31.142Z" agent="5.0 (Windows NT 10.0; Win64; x64) AppleWebKit/537.36 (KHTML, like Gecko) Chrome/107.0.0.0 Safari/537.36 Edg/107.0.1418.62" etag="RhurzP7bCsqgW37WCWon" version="20.6.0" type="github">
  <diagram id="hwrUqL6_wCM3mPht2AmQ" name="第 1 页">
    <mxGraphModel dx="2500" dy="2598" grid="1" gridSize="10" guides="1" tooltips="1" connect="1" arrows="1" fold="1" page="1" pageScale="1" pageWidth="827" pageHeight="1169" math="0" shadow="0">
      <root>
        <mxCell id="0" />
        <mxCell id="1" parent="0" />
        <mxCell id="PapAZJdQ3XxkKMe2odG--15" style="edgeStyle=orthogonalEdgeStyle;rounded=1;orthogonalLoop=1;jettySize=auto;html=1;strokeColor=#A1A1A1;fontSize=17;" parent="1" source="PapAZJdQ3XxkKMe2odG--1" target="PapAZJdQ3XxkKMe2odG--4" edge="1">
          <mxGeometry relative="1" as="geometry" />
        </mxCell>
        <mxCell id="PapAZJdQ3XxkKMe2odG--1" value="state" style="rounded=0;whiteSpace=wrap;html=1;fillColor=#dae8fc;strokeColor=none;gradientColor=none;fontSize=17;" parent="1" vertex="1">
          <mxGeometry x="210" y="245" width="80" height="100" as="geometry" />
        </mxCell>
        <mxCell id="PapAZJdQ3XxkKMe2odG--6" style="edgeStyle=orthogonalEdgeStyle;rounded=1;orthogonalLoop=1;jettySize=auto;html=1;strokeColor=#A1A1A1;fontSize=17;" parent="1" source="PapAZJdQ3XxkKMe2odG--4" target="PapAZJdQ3XxkKMe2odG--7" edge="1">
          <mxGeometry relative="1" as="geometry">
            <mxPoint x="420" y="195" as="targetPoint" />
            <Array as="points">
              <mxPoint x="450" y="170" />
              <mxPoint x="450" y="170" />
            </Array>
          </mxGeometry>
        </mxCell>
        <mxCell id="PapAZJdQ3XxkKMe2odG--20" value="ask advice：u&lt;sub style=&quot;font-size: 17px;&quot;&gt;s&lt;/sub&gt; &amp;gt; c" style="edgeLabel;html=1;align=center;verticalAlign=middle;resizable=0;points=[];fontSize=17;" parent="PapAZJdQ3XxkKMe2odG--6" vertex="1" connectable="0">
          <mxGeometry x="0.3191" y="-4" relative="1" as="geometry">
            <mxPoint x="76" y="19" as="offset" />
          </mxGeometry>
        </mxCell>
        <mxCell id="PapAZJdQ3XxkKMe2odG--4" value="agent" style="rounded=0;whiteSpace=wrap;html=1;fillColor=#f8cecc;strokeColor=none;fontSize=17;" parent="1" vertex="1">
          <mxGeometry x="363" y="250" width="104" height="90" as="geometry" />
        </mxCell>
        <mxCell id="PapAZJdQ3XxkKMe2odG--14" style="edgeStyle=orthogonalEdgeStyle;rounded=1;orthogonalLoop=1;jettySize=auto;html=1;exitX=0;exitY=1;exitDx=0;exitDy=0;entryX=0.192;entryY=0.011;entryDx=0;entryDy=0;entryPerimeter=0;strokeColor=#A3A3A3;fontSize=17;" parent="1" source="PapAZJdQ3XxkKMe2odG--7" target="PapAZJdQ3XxkKMe2odG--4" edge="1">
          <mxGeometry relative="1" as="geometry">
            <mxPoint x="383" y="180" as="targetPoint" />
          </mxGeometry>
        </mxCell>
        <mxCell id="PapAZJdQ3XxkKMe2odG--7" value="teacher" style="ellipse;whiteSpace=wrap;html=1;aspect=fixed;fillColor=#1ba1e2;fontColor=#ffffff;strokeColor=none;fontSize=17;" parent="1" vertex="1">
          <mxGeometry x="370" y="63" width="90" height="90" as="geometry" />
        </mxCell>
        <mxCell id="PapAZJdQ3XxkKMe2odG--18" value="" style="endArrow=none;dashed=1;html=1;dashPattern=1 3;strokeWidth=2;rounded=1;strokeColor=#A1A1A1;fontSize=17;" parent="1" edge="1">
          <mxGeometry width="50" height="50" relative="1" as="geometry">
            <mxPoint x="1260" y="675.3361344537816" as="sourcePoint" />
            <mxPoint x="1260" y="694.6638655462184" as="targetPoint" />
          </mxGeometry>
        </mxCell>
        <mxCell id="PapAZJdQ3XxkKMe2odG--21" value="provide advice：b&amp;nbsp;&amp;gt; 0" style="edgeLabel;html=1;align=center;verticalAlign=middle;resizable=0;points=[];fontSize=17;" parent="1" vertex="1" connectable="0">
          <mxGeometry x="300" y="185" as="geometry">
            <mxPoint x="-9" y="-5" as="offset" />
          </mxGeometry>
        </mxCell>
        <mxCell id="PapAZJdQ3XxkKMe2odG--22" style="edgeStyle=orthogonalEdgeStyle;rounded=1;orthogonalLoop=1;jettySize=auto;html=1;strokeColor=#A1A1A1;fontSize=17;" parent="1" source="PapAZJdQ3XxkKMe2odG--23" target="PapAZJdQ3XxkKMe2odG--26" edge="1">
          <mxGeometry relative="1" as="geometry">
            <Array as="points">
              <mxPoint x="744" y="294" />
              <mxPoint x="744" y="239" />
            </Array>
          </mxGeometry>
        </mxCell>
        <mxCell id="PapAZJdQ3XxkKMe2odG--31" style="edgeStyle=orthogonalEdgeStyle;rounded=1;orthogonalLoop=1;jettySize=auto;html=1;exitX=1;exitY=0.5;exitDx=0;exitDy=0;entryX=0;entryY=0.5;entryDx=0;entryDy=0;strokeColor=#A1A1A1;fontSize=17;" parent="1" source="PapAZJdQ3XxkKMe2odG--23" target="PapAZJdQ3XxkKMe2odG--30" edge="1">
          <mxGeometry relative="1" as="geometry" />
        </mxCell>
        <mxCell id="PapAZJdQ3XxkKMe2odG--23" value="state" style="rounded=0;whiteSpace=wrap;html=1;fillColor=#dae8fc;strokeColor=none;gradientColor=none;fontSize=17;" parent="1" vertex="1">
          <mxGeometry x="605" y="244" width="80" height="100" as="geometry" />
        </mxCell>
        <mxCell id="PapAZJdQ3XxkKMe2odG--26" value="agent" style="rounded=0;whiteSpace=wrap;html=1;fillColor=#f8cecc;strokeColor=none;shadow=1;fontSize=17;" parent="1" vertex="1">
          <mxGeometry x="803" y="194" width="104" height="90" as="geometry" />
        </mxCell>
        <mxCell id="PapAZJdQ3XxkKMe2odG--55" style="edgeStyle=orthogonalEdgeStyle;rounded=1;orthogonalLoop=1;jettySize=auto;html=1;exitX=0.5;exitY=1;exitDx=0;exitDy=0;strokeColor=#A1A1A1;fontSize=17;" parent="1" source="PapAZJdQ3XxkKMe2odG--28" target="PapAZJdQ3XxkKMe2odG--26" edge="1">
          <mxGeometry relative="1" as="geometry" />
        </mxCell>
        <mxCell id="PapAZJdQ3XxkKMe2odG--28" value="teacher" style="ellipse;whiteSpace=wrap;html=1;aspect=fixed;fillColor=#1ba1e2;fontColor=#ffffff;strokeColor=none;fontSize=17;" parent="1" vertex="1">
          <mxGeometry x="810" y="7" width="90" height="90" as="geometry" />
        </mxCell>
        <mxCell id="PapAZJdQ3XxkKMe2odG--29" value="provide advice：b&amp;nbsp;&amp;gt; 0" style="edgeLabel;html=1;align=center;verticalAlign=middle;resizable=0;points=[];fontSize=17;" parent="1" vertex="1" connectable="0">
          <mxGeometry x="770" y="130" as="geometry" />
        </mxCell>
        <mxCell id="PapAZJdQ3XxkKMe2odG--32" style="edgeStyle=orthogonalEdgeStyle;rounded=1;orthogonalLoop=1;jettySize=auto;html=1;exitX=1;exitY=0.5;exitDx=0;exitDy=0;entryX=1;entryY=0.5;entryDx=0;entryDy=0;strokeColor=#A1A1A1;fontSize=17;" parent="1" source="PapAZJdQ3XxkKMe2odG--30" target="PapAZJdQ3XxkKMe2odG--28" edge="1">
          <mxGeometry relative="1" as="geometry">
            <Array as="points">
              <mxPoint x="1005" y="359" />
              <mxPoint x="1005" y="52" />
            </Array>
          </mxGeometry>
        </mxCell>
        <mxCell id="PapAZJdQ3XxkKMe2odG--30" value="RND" style="rounded=0;whiteSpace=wrap;html=1;gradientColor=none;fillColor=#F8CECC;strokeColor=none;fontSize=17;" parent="1" vertex="1">
          <mxGeometry x="805" y="314" width="102" height="90" as="geometry" />
        </mxCell>
        <mxCell id="PapAZJdQ3XxkKMe2odG--33" value="ask advice：τ&lt;sub style=&quot;font-size: 17px;&quot;&gt;s&lt;/sub&gt; &amp;gt; c" style="edgeLabel;html=1;align=center;verticalAlign=middle;resizable=0;points=[];fontSize=17;" parent="1" vertex="1" connectable="0">
          <mxGeometry x="1080" y="194" as="geometry" />
        </mxCell>
        <mxCell id="PapAZJdQ3XxkKMe2odG--34" style="edgeStyle=orthogonalEdgeStyle;rounded=1;orthogonalLoop=1;jettySize=auto;html=1;strokeColor=#A1A1A1;fontSize=17;" parent="1" source="PapAZJdQ3XxkKMe2odG--36" target="PapAZJdQ3XxkKMe2odG--37" edge="1">
          <mxGeometry relative="1" as="geometry">
            <Array as="points">
              <mxPoint x="1298" y="285" />
              <mxPoint x="1298" y="230" />
            </Array>
          </mxGeometry>
        </mxCell>
        <mxCell id="PapAZJdQ3XxkKMe2odG--35" style="edgeStyle=orthogonalEdgeStyle;rounded=1;orthogonalLoop=1;jettySize=auto;html=1;exitX=1;exitY=0.5;exitDx=0;exitDy=0;entryX=0;entryY=0.5;entryDx=0;entryDy=0;strokeColor=#A1A1A1;fontSize=17;" parent="1" source="PapAZJdQ3XxkKMe2odG--36" target="PapAZJdQ3XxkKMe2odG--42" edge="1">
          <mxGeometry relative="1" as="geometry" />
        </mxCell>
        <mxCell id="PapAZJdQ3XxkKMe2odG--36" value="state" style="rounded=0;whiteSpace=wrap;html=1;fillColor=#dae8fc;strokeColor=none;gradientColor=none;fontSize=17;" parent="1" vertex="1">
          <mxGeometry x="1159" y="235" width="80" height="100" as="geometry" />
        </mxCell>
        <mxCell id="PapAZJdQ3XxkKMe2odG--37" value="agent" style="rounded=0;whiteSpace=wrap;html=1;fillColor=#f8cecc;strokeColor=none;fontSize=17;" parent="1" vertex="1">
          <mxGeometry x="1357" y="185" width="104" height="90" as="geometry" />
        </mxCell>
        <mxCell id="PapAZJdQ3XxkKMe2odG--56" style="edgeStyle=orthogonalEdgeStyle;rounded=1;orthogonalLoop=1;jettySize=auto;html=1;exitX=0.5;exitY=1;exitDx=0;exitDy=0;strokeColor=#A1A1A1;fontSize=17;" parent="1" source="PapAZJdQ3XxkKMe2odG--39" target="PapAZJdQ3XxkKMe2odG--37" edge="1">
          <mxGeometry relative="1" as="geometry" />
        </mxCell>
        <mxCell id="PapAZJdQ3XxkKMe2odG--39" value="teacher" style="ellipse;whiteSpace=wrap;html=1;aspect=fixed;fillColor=#1ba1e2;fontColor=#ffffff;strokeColor=none;fontSize=17;" parent="1" vertex="1">
          <mxGeometry x="1364" y="-2" width="90" height="90" as="geometry" />
        </mxCell>
        <mxCell id="PapAZJdQ3XxkKMe2odG--40" value="provide advice：b&amp;nbsp;&amp;gt; 0" style="edgeLabel;html=1;align=center;verticalAlign=middle;resizable=0;points=[];fontSize=17;" parent="1" vertex="1" connectable="0">
          <mxGeometry x="1320" y="130" as="geometry" />
        </mxCell>
        <mxCell id="PapAZJdQ3XxkKMe2odG--46" style="edgeStyle=orthogonalEdgeStyle;rounded=1;orthogonalLoop=1;jettySize=auto;html=1;exitX=1;exitY=0.5;exitDx=0;exitDy=0;strokeColor=#A1A1A1;fontSize=17;" parent="1" source="PapAZJdQ3XxkKMe2odG--42" target="PapAZJdQ3XxkKMe2odG--45" edge="1">
          <mxGeometry relative="1" as="geometry" />
        </mxCell>
        <mxCell id="PapAZJdQ3XxkKMe2odG--42" value="Action BYOL" style="rounded=0;whiteSpace=wrap;html=1;gradientColor=none;fillColor=#F8CECC;strokeColor=none;fontSize=17;" parent="1" vertex="1">
          <mxGeometry x="1359" y="305" width="102" height="90" as="geometry" />
        </mxCell>
        <mxCell id="PapAZJdQ3XxkKMe2odG--43" value="ask advice：dist&amp;nbsp;&amp;gt; c" style="edgeLabel;html=1;align=center;verticalAlign=middle;resizable=0;points=[];fontSize=17;" parent="1" vertex="1" connectable="0">
          <mxGeometry x="1710" y="120" as="geometry" />
        </mxCell>
        <mxCell id="PapAZJdQ3XxkKMe2odG--53" style="edgeStyle=orthogonalEdgeStyle;curved=1;orthogonalLoop=1;jettySize=auto;html=1;exitX=1;exitY=0.5;exitDx=0;exitDy=0;exitPerimeter=0;entryX=1;entryY=0.5;entryDx=0;entryDy=0;strokeColor=#A1A1A1;fontSize=17;" parent="1" source="PapAZJdQ3XxkKMe2odG--44" target="PapAZJdQ3XxkKMe2odG--49" edge="1">
          <mxGeometry relative="1" as="geometry">
            <Array as="points">
              <mxPoint x="1760" y="470" />
              <mxPoint x="1760" y="239" />
            </Array>
          </mxGeometry>
        </mxCell>
        <mxCell id="PapAZJdQ3XxkKMe2odG--44" value="buffer" style="shape=cylinder3;whiteSpace=wrap;html=1;boundedLbl=1;backgroundOutline=1;size=15;fillColor=#F8CECC;gradientColor=none;fontSize=17;" parent="1" vertex="1">
          <mxGeometry x="1599.5" y="430" width="60" height="80" as="geometry" />
        </mxCell>
        <mxCell id="PapAZJdQ3XxkKMe2odG--47" style="edgeStyle=orthogonalEdgeStyle;rounded=1;orthogonalLoop=1;jettySize=auto;html=1;exitX=0.5;exitY=1;exitDx=0;exitDy=0;strokeColor=#A1A1A1;fontSize=17;" parent="1" source="PapAZJdQ3XxkKMe2odG--45" target="PapAZJdQ3XxkKMe2odG--44" edge="1">
          <mxGeometry relative="1" as="geometry" />
        </mxCell>
        <mxCell id="PapAZJdQ3XxkKMe2odG--52" style="edgeStyle=orthogonalEdgeStyle;curved=1;orthogonalLoop=1;jettySize=auto;html=1;exitX=0.5;exitY=0;exitDx=0;exitDy=0;entryX=0.5;entryY=1;entryDx=0;entryDy=0;strokeColor=#A1A1A1;fontSize=17;" parent="1" source="PapAZJdQ3XxkKMe2odG--45" target="PapAZJdQ3XxkKMe2odG--49" edge="1">
          <mxGeometry relative="1" as="geometry" />
        </mxCell>
        <mxCell id="PapAZJdQ3XxkKMe2odG--45" value="feature" style="rounded=0;whiteSpace=wrap;html=1;gradientColor=none;fillColor=#F8CECC;strokeColor=none;fontSize=17;" parent="1" vertex="1">
          <mxGeometry x="1569" y="332.5" width="121" height="35" as="geometry" />
        </mxCell>
        <mxCell id="PapAZJdQ3XxkKMe2odG--54" style="edgeStyle=orthogonalEdgeStyle;orthogonalLoop=1;jettySize=auto;html=1;exitX=0.5;exitY=0;exitDx=0;exitDy=0;entryX=1;entryY=0.5;entryDx=0;entryDy=0;strokeColor=#A1A1A1;rounded=1;fontSize=17;" parent="1" source="PapAZJdQ3XxkKMe2odG--49" target="PapAZJdQ3XxkKMe2odG--39" edge="1">
          <mxGeometry relative="1" as="geometry" />
        </mxCell>
        <mxCell id="PapAZJdQ3XxkKMe2odG--49" value="diastance" style="rounded=1;whiteSpace=wrap;html=1;fillColor=#F8CECC;gradientColor=none;strokeColor=none;fontSize=17;" parent="1" vertex="1">
          <mxGeometry x="1584.5" y="214" width="90" height="50" as="geometry" />
        </mxCell>
        <mxCell id="_E5XtDjc_qgeQ6quYQ7q-1" value="uncertainty based" style="text;html=1;align=center;verticalAlign=middle;resizable=0;points=[];autosize=1;strokeColor=none;fillColor=none;fontSize=17;" vertex="1" parent="1">
          <mxGeometry x="327" y="535" width="160" height="30" as="geometry" />
        </mxCell>
        <mxCell id="_E5XtDjc_qgeQ6quYQ7q-2" value="novelty based" style="text;html=1;align=center;verticalAlign=middle;resizable=0;points=[];autosize=1;strokeColor=none;fillColor=none;shadow=1;fontSize=17;" vertex="1" parent="1">
          <mxGeometry x="792" y="535" width="130" height="30" as="geometry" />
        </mxCell>
        <mxCell id="_E5XtDjc_qgeQ6quYQ7q-3" value="our method" style="text;html=1;align=center;verticalAlign=middle;resizable=0;points=[];autosize=1;strokeColor=none;fillColor=none;fontSize=17;" vertex="1" parent="1">
          <mxGeometry x="1366" y="535" width="110" height="30" as="geometry" />
        </mxCell>
      </root>
    </mxGraphModel>
  </diagram>
</mxfile>
